<?xml version="1.0" encoding="utf-8"?>
<!-- Generator: Adobe Illustrator 19.0.0, SVG Export Plug-In . SVG Version: 6.00 Build 0)  -->
<svg version="1.1" id="Layer_1" xmlns="http://www.w3.org/2000/svg" xmlns:xlink="http://www.w3.org/1999/xlink" x="0px" y="0px"
	 viewBox="-429 251 320 192" style="enable-background:new -429 251 320 192;" xml:space="preserve">
<style type="text/css">
	.st0{fill:#5F2551;}
	.st1{fill:#7F2974;}
	.st2{fill:#59264D;}
	.st3{fill:#425829;}
	.st4{fill:#3D4E25;}
	.st5{fill:#384924;}
	.st6{fill:#4A6E20;}
	.st7{fill:#287B95;}
	.st8{fill:#276B88;}
	.st9{fill:#1FA5C4;}
	.st10{fill:#C5D0D1;}
</style>
<g id="XMLID_31_">
	<polygon id="XMLID_46_" class="st0" points="-429,369.1 -375.9,312.4 -323.1,280.1 -313.2,301.9 -367.2,359.5 -374,358.2 	"/>
	<polygon id="XMLID_44_" class="st1" points="-429,369.1 -375.9,312.4 -323.1,280.1 -365,316.3 -409.2,365.2 	"/>
	<polygon id="XMLID_45_" class="st2" points="-409.2,364.9 -365,316.3 -323.1,280.1 -367.2,359.5 -373.6,358.2 	"/>
	<polygon id="XMLID_43_" class="st3" points="-359.2,360.8 -274.1,274.7 -263.6,276.9 -249.8,251 -212.4,292 -217.8,292.9 
		-267.7,358.2 -275.4,356.6 -295.6,342.8 -322.8,364 -343.2,363.6 	"/>
	<polygon id="XMLID_42_" class="st4" points="-275.4,356.6 -267.7,358.2 -236,316.6 -249.8,251 	"/>
	<polygon id="XMLID_41_" class="st5" points="-349.6,362.7 -343.2,363.6 -322.8,364 -295.6,342.8 -275.4,356.6 -249.5,251 
		-262.3,280.1 -272.8,278.5 	"/>
	<polygon id="XMLID_40_" class="st6" points="-359.2,360.8 -274.8,272.8 -264.2,275 -251.4,251.3 -249.8,251 -262,280.1 
		-272.8,278.5 -349.6,362.7 	"/>
	<polygon id="XMLID_37_" class="st7" points="-259.4,360.1 -203.7,290.4 -156.4,335.2 -139.7,337.1 -109,370.4 -154.1,351.5 
		-172.7,370.7 -213.6,351.2 -247.6,362.7 	"/>
	<polygon id="XMLID_38_" class="st8" points="-203.7,290.4 -250.1,362 -247.6,362.7 -213.6,351.2 -190.9,362 -172.7,370.7 
		-160.5,357.9 	"/>
	<polygon id="XMLID_36_" class="st9" points="-261.3,359.5 -206.3,291 -203.7,290.4 -250.1,362 	"/>
</g>
<path class="st10" d="M-373.3,422.2h13.7v3.6h-0.5c-0.1-0.8-0.3-1.4-0.5-1.7c-0.2-0.4-0.5-0.6-0.9-0.7c-0.4-0.1-1-0.1-1.8-0.1h-5.1
	v8.3h5.1c0.7,0,1.3-0.2,1.6-0.6c0.3-0.4,0.5-1,0.6-1.8h0.6v5.6h-0.6c0-0.7-0.2-1.3-0.6-1.7c-0.4-0.4-0.9-0.6-1.6-0.6h-5.2v5.9
	c0,1.2,0.2,2.1,0.5,2.5c0.3,0.5,0.9,0.7,1.8,0.7v0.6h-7.2v-0.6c0.9,0,1.5-0.2,1.8-0.7c0.3-0.4,0.5-1.3,0.5-2.5v-12.4
	c0-1.2-0.2-2.1-0.5-2.5s-0.9-0.7-1.8-0.7V422.2z M-358.3,422.7c0.9,0,1.5,0.2,1.8,0.7c0.3,0.4,0.5,1.3,0.5,2.5v12.4
	c0,1.2-0.2,2.1-0.5,2.5c-0.3,0.4-0.9,0.7-1.8,0.7v0.6h7.2v-0.6c-0.8,0-1.4-0.2-1.8-0.7c-0.3-0.5-0.5-1.3-0.5-2.5v-12.4
	c0-1.2,0.2-2,0.5-2.5c0.3-0.5,0.9-0.7,1.8-0.7v-0.6h-7.2V422.7z M-328.6,422.2h-6v0.6c0.9,0,1.5,0.2,1.9,0.7
	c0.4,0.5,0.6,1.3,0.6,2.6v11.7h-0.1l-12.5-15.5h-5.2v0.6c1.1,0.1,1.9,0.4,2.3,1c0.4,0.6,0.6,1.5,0.6,2.7v11.7c0,1.4-0.2,2.3-0.6,2.7
	c-0.4,0.5-1,0.7-1.9,0.7v0.6h6v-0.6c-0.9,0-1.6-0.2-2-0.6s-0.6-1.1-0.6-2.1v-14h0.1l14.1,17.4h0.5v-16.3c0-1.1,0.2-1.9,0.6-2.4
	c0.4-0.5,1.1-0.7,2-0.7V422.2z M-312,441.3c0.3,0.1,0.8,0.2,1.4,0.2v0.6h-7v-0.6c0.5,0,0.9-0.1,1.2-0.3c0.3-0.2,0.5-0.5,0.5-0.9
	c0-0.1,0-0.4-0.1-0.8l-1.8-5.6h-6.4l-1.4,4.1c-0.1,0.2-0.1,0.5-0.2,0.8c-0.1,0.3-0.2,0.6-0.2,0.8c0,0.2-0.1,0.4-0.1,0.5
	c0,0.9,0.5,1.3,1.6,1.3v0.6h-5.2v-0.6c0.6-0.1,1.1-0.3,1.4-0.5c0.3-0.3,0.6-0.6,0.8-1c0.2-0.4,0.4-0.9,0.6-1.6l5.5-16.5h2.1
	l5.8,17.2c0.2,0.6,0.4,1.1,0.6,1.5C-312.6,440.9-312.4,441.2-312,441.3z M-318.4,432.8l-2.8-8.5h-0.1l-2.8,8.5H-318.4z
	 M-289.2,422.2h-6v0.6c0.9,0,1.5,0.2,1.9,0.7c0.4,0.5,0.6,1.3,0.6,2.6v11.7h-0.1l-12.5-15.5h-5.2v0.6c1.1,0.1,1.9,0.4,2.3,1
	c0.4,0.6,0.6,1.5,0.6,2.7v11.7c0,1.4-0.2,2.3-0.6,2.7c-0.4,0.5-1,0.7-1.9,0.7v0.6h6v-0.6c-0.9,0-1.6-0.2-2-0.6s-0.6-1.1-0.6-2.1v-14
	h0.1l14.1,17.4h0.5v-16.3c0-1.1,0.2-1.9,0.6-2.4c0.4-0.5,1.1-0.7,2-0.7V422.2z M-279.1,441.3c-1.5,0-2.8-0.4-4-1.2
	c-1.2-0.8-2.1-2-2.7-3.5c-0.6-1.5-1-3.2-1-5.2c0-1.7,0.3-3.3,0.9-4.6c0.6-1.4,1.4-2.4,2.5-3.2c1.1-0.8,2.5-1.2,4-1.2
	c1.8,0,3.2,0.4,4.2,1.3c1,0.9,1.8,2.2,2.3,4.1h0.6v-6h-0.6c-0.2,0.4-0.6,0.7-1.1,0.7c-0.2,0-1-0.1-2.2-0.4c-1.2-0.3-2.4-0.4-3.4-0.4
	c-1.4,0-2.8,0.3-4.1,0.8c-1.3,0.5-2.4,1.3-3.3,2.3c-0.9,1-1.7,2.2-2.2,3.5c-0.5,1.3-0.8,2.8-0.8,4.4c0,2.1,0.5,3.9,1.4,5.4
	c0.9,1.5,2.2,2.6,3.7,3.4c1.5,0.8,3.1,1.1,4.7,1.1c1.3,0,2.5-0.2,3.6-0.6c1.1-0.4,2.1-1,2.9-1.8c0.8-0.8,1.5-1.7,1.9-2.8l-0.6-0.4
	C-273.6,439.9-275.9,441.3-279.1,441.3z M-270.4,422.7c0.9,0,1.5,0.2,1.8,0.7c0.3,0.4,0.5,1.3,0.5,2.5v12.4c0,1.2-0.2,2.1-0.5,2.5
	c-0.3,0.4-0.9,0.7-1.8,0.7v0.6h7.2v-0.6c-0.8,0-1.4-0.2-1.8-0.7c-0.3-0.5-0.5-1.3-0.5-2.5v-12.4c0-1.2,0.2-2,0.5-2.5
	c0.3-0.5,0.9-0.7,1.8-0.7v-0.6h-7.2V422.7z M-245.4,441.3c0.3,0.1,0.8,0.2,1.4,0.2v0.6h-7v-0.6c0.5,0,0.9-0.1,1.2-0.3
	c0.3-0.2,0.5-0.5,0.5-0.9c0-0.1,0-0.4-0.1-0.8l-1.8-5.6h-6.4l-1.4,4.1c-0.1,0.2-0.1,0.5-0.2,0.8c-0.1,0.3-0.2,0.6-0.2,0.8
	c0,0.2-0.1,0.4-0.1,0.5c0,0.9,0.5,1.3,1.6,1.3v0.6h-5.2v-0.6c0.6-0.1,1.1-0.3,1.4-0.5c0.3-0.3,0.6-0.6,0.8-1
	c0.2-0.4,0.4-0.9,0.6-1.6l5.5-16.5h2.1l5.8,17.2c0.2,0.6,0.4,1.1,0.6,1.5C-246,440.9-245.7,441.2-245.4,441.3z M-251.7,432.8
	l-2.8-8.5h-0.1l-2.8,8.5H-251.7z M-228.4,440c-0.3,0.5-0.7,0.8-1.1,0.9c-0.4,0.2-1.1,0.2-1.9,0.2h-4c-0.9,0-1.5-0.1-1.8-0.4
	c-0.3-0.2-0.5-0.8-0.5-1.5v-13.4c0-1.1,0.2-1.9,0.5-2.4c0.3-0.5,0.9-0.8,1.7-0.8v-0.6h-7.2v0.6c0.8,0,1.4,0.2,1.8,0.6
	c0.4,0.4,0.5,1.2,0.5,2.3v12.6c0,1.2-0.2,2.1-0.6,2.6c-0.4,0.5-1,0.8-1.8,0.8v0.6h14.5l1.2-4.4h-0.6
	C-227.9,438.8-228.2,439.5-228.4,440z M-217.7,422.7c0.9,0,1.5,0.2,1.8,0.7c0.3,0.4,0.5,1.3,0.5,2.5v12.4c0,1.2-0.2,2.1-0.5,2.5
	c-0.3,0.4-0.9,0.7-1.8,0.7v0.6h7.2v-0.6c-0.8,0-1.4-0.2-1.8-0.7c-0.3-0.5-0.5-1.3-0.5-2.5v-12.4c0-1.2,0.2-2,0.5-2.5
	c0.3-0.5,0.9-0.7,1.8-0.7v-0.6h-7.2V422.7z M-193.4,422.7c0.9,0,1.5,0.2,1.9,0.7c0.4,0.5,0.6,1.3,0.6,2.6v11.7h-0.1l-12.5-15.5h-5.2
	v0.6c1.1,0.1,1.9,0.4,2.3,1c0.4,0.6,0.6,1.5,0.6,2.7v11.7c0,1.4-0.2,2.3-0.6,2.7c-0.4,0.5-1,0.7-1.9,0.7v0.6h6v-0.6
	c-0.9,0-1.6-0.2-2-0.6c-0.4-0.4-0.6-1.1-0.6-2.1v-14h0.1l14.1,17.4h0.5v-16.3c0-1.1,0.2-1.9,0.6-2.4c0.4-0.5,1.1-0.7,2-0.7v-0.6h-6
	V422.7z M-176.6,441.3c-1.5,0-2.8-0.4-4-1.2c-1.2-0.8-2.1-2-2.7-3.5c-0.6-1.5-1-3.2-1-5.2c0-1.7,0.3-3.3,0.9-4.6
	c0.6-1.4,1.4-2.4,2.5-3.2c1.1-0.8,2.5-1.2,4-1.2c1.8,0,3.2,0.4,4.2,1.3c1,0.9,1.8,2.2,2.3,4.1h0.6v-6h-0.6c-0.2,0.4-0.6,0.7-1.1,0.7
	c-0.2,0-1-0.1-2.2-0.4c-1.2-0.3-2.4-0.4-3.4-0.4c-1.4,0-2.8,0.3-4.1,0.8c-1.3,0.5-2.4,1.3-3.3,2.3c-0.9,1-1.7,2.2-2.2,3.5
	c-0.5,1.3-0.8,2.8-0.8,4.4c0,2.1,0.5,3.9,1.4,5.4c0.9,1.5,2.2,2.6,3.7,3.4c1.5,0.8,3.1,1.1,4.7,1.1c1.3,0,2.5-0.2,3.6-0.6
	c1.1-0.4,2.1-1,2.9-1.8c0.8-0.8,1.5-1.7,1.9-2.8l-0.6-0.4C-171.1,439.9-173.4,441.3-176.6,441.3z M-165.1,440.2
	c-0.3-0.3-0.7-0.5-1.1-0.5c-0.4,0-0.8,0.2-1.2,0.5c-0.3,0.3-0.5,0.7-0.5,1.2c0,0.4,0.2,0.8,0.5,1.2c0.3,0.3,0.7,0.5,1.2,0.5
	c0.4,0,0.8-0.2,1.1-0.5c0.3-0.3,0.5-0.7,0.5-1.2C-164.7,440.9-164.8,440.5-165.1,440.2z"/>
<path class="st10" d="M-112,402.3l-0.5,6.6h-19.8v-0.8c1.3-0.3,2.2-0.7,2.6-1.2c0.4-0.5,0.6-1.6,0.6-3.1v-17.6
	c0-1.3-0.2-2.2-0.7-2.7c-0.4-0.5-1.3-0.9-2.6-1.1v-0.8h19.5v6.1h-0.8c-0.4-1.8-1-3-1.6-3.6c-0.6-0.6-1.7-0.9-3.1-0.9h-5v11.3h4.6
	c1,0,1.8-0.3,2.4-0.8c0.5-0.5,1-1.4,1.2-2.6h0.8v8.5h-0.8c-0.3-2.3-1.5-3.5-3.6-3.5h-4.6v8c0,1.2,0.3,2.1,0.8,2.6
	c0.5,0.5,1.4,0.8,2.7,0.8h1.5c2.5,0,4.4-1.7,5.5-5.1H-112z M-142.4,382.4c1.3,0.3,2.1,0.8,2.6,1.5c0.5,0.7,0.7,1.9,0.7,3.8v12.3
	l-15.2-18.3h-7.8v0.8c0.5,0.1,1,0.3,1.4,0.6c0.4,0.3,1.1,1,2.1,2.1v18.6c0,1.4-0.3,2.5-0.8,3.2c-0.5,0.7-1.4,1.1-2.6,1.3v0.8h9v-0.8
	c-1.5-0.3-2.6-0.7-3.1-1.3c-0.5-0.6-0.8-1.6-0.8-3.1v-16.7l18.7,22.2h0.8v-22.4c0-2.8,1.3-4.3,3.8-4.5v-0.8h-8.8V382.4z
	 M-401.3,385.4c2.8,2.6,4.2,6,4.2,10.2c0,4-1.3,7.3-3.8,9.7c-2.5,2.4-5.9,3.6-10.1,3.6h-15v-0.8c1.4-0.4,2.3-0.8,2.7-1.3
	c0.4-0.5,0.6-1.5,0.6-3.1v-17.4c0-1.2-0.2-2.1-0.6-2.6c-0.4-0.5-1.3-0.9-2.7-1.3v-0.8h13.3C-407.9,381.6-404.1,382.8-401.3,385.4z
	 M-403.3,395.3c0-3.8-0.9-6.7-2.7-8.9c-1.8-2.2-4.3-3.3-7.6-3.3h-3.4v21c0,1.2,0.3,2,1,2.5c0.7,0.5,1.7,0.7,3.3,0.7c3,0,5.3-1,7-3.1
	C-404.1,402.1-403.3,399.1-403.3,395.3z M-380.8,382.4c1.4,0.4,2.2,0.8,2.7,1.3c0.4,0.5,0.6,1.3,0.6,2.6v17.1
	c-2.3,2.5-4.5,3.8-6.7,3.8c-1.5,0-2.7-0.5-3.6-1.4c-0.9-1-1.3-2.3-1.3-3.9v-15.3c0-1.4,0.2-2.3,0.7-2.8c0.4-0.5,1.3-0.9,2.6-1.2
	v-0.8h-12.3v0.8c1.3,0.3,2.2,0.7,2.7,1.2c0.4,0.5,0.6,1.4,0.6,2.6v14.3c0,2.8,0.8,5,2.4,6.6c1.6,1.6,3.8,2.5,6.5,2.5
	c1.6,0,3-0.3,4.2-0.9c1.2-0.6,2.6-1.8,4.2-3.4v3.7h9v-0.8c-1.3-0.3-2.2-0.8-2.6-1.3c-0.4-0.5-0.6-1.3-0.6-2.6v-17.5
	c0-1.6,0.2-2.7,0.7-3.2c0.5-0.5,1.3-0.9,2.6-1.2v-0.8h-12.3V382.4z M-343.7,405.2l-10.4-13.5l4.8-4.8c1.7-1.7,3.1-2.9,4.3-3.5
	c1.2-0.7,2.4-1,3.6-1v-0.8h-10.8v0.8c1.6,0.4,2.4,1,2.4,1.9c0,0.5-0.3,1-0.8,1.6l-8,8.1v-8.1c0-1,0.2-1.7,0.7-2.2
	c0.5-0.5,1.3-0.9,2.6-1.2v-0.8h-12.3v0.8c1.3,0.3,2.2,0.7,2.7,1.2c0.4,0.5,0.6,1.4,0.6,2.6v17.9c0,1.3-0.2,2.2-0.6,2.7
	c-0.4,0.5-1.3,0.9-2.7,1.3v0.8h12.3v-0.8c-1.5-0.5-2.4-0.9-2.7-1.4c-0.4-0.5-0.5-1.4-0.5-2.7V395l8.1,10.6c0.4,0.5,0.5,0.8,0.5,1.2
	c0,0.6-0.6,1-1.8,1.3v0.8h11.9v-0.8c-0.7-0.1-1.3-0.3-1.8-0.7C-342.1,407.1-342.8,406.3-343.7,405.2z M-324.7,407.3h-1.5
	c-1.3,0-2.2-0.3-2.7-0.8c-0.5-0.5-0.8-1.4-0.8-2.6v-8h4.6c2.1,0,3.3,1.2,3.6,3.5h0.8V391h-0.8c-0.3,1.2-0.7,2.1-1.2,2.6
	c-0.5,0.5-1.3,0.8-2.4,0.8h-4.6v-11.3h5c1.4,0,2.4,0.3,3.1,0.9c0.6,0.6,1.2,1.8,1.6,3.6h0.8v-6.1h-19.5v0.8c1.3,0.3,2.1,0.6,2.6,1.1
	c0.4,0.5,0.7,1.4,0.7,2.7v17.6c0,1.6-0.2,2.6-0.6,3.1c-0.4,0.5-1.3,1-2.6,1.2v0.8h19.8l0.5-6.6h-0.8
	C-320.4,405.7-322.2,407.3-324.7,407.3z M-272.8,403.9l-2.3-17.1c-0.1-0.4-0.1-0.8-0.1-1.2c0-0.9,0.2-1.7,0.7-2.2
	c0.5-0.5,1.2-0.9,2.3-1.1v-0.8h-8.8l-6.9,18l-6.8-18h-9.4v0.8c1.4,0,2.7,0.7,3.8,1.9l-2.6,17.9c-0.3,2.1-0.8,3.7-1.5,4.6
	c-0.7,0.9-1.7,1.4-3.1,1.4v0.8h9.4v-0.8c-2.1-0.2-3.2-1.4-3.2-3.8c0-0.5,0-1.1,0.1-1.7l2.3-16.1l8.4,22.4h0.9l8.5-22.4l2.1,15.6
	c0.1,0.8,0.2,1.5,0.2,2.1c0,1.1-0.2,2-0.7,2.6c-0.5,0.6-1.2,1.1-2.3,1.3v0.8h12.8v-0.8c-1.2-0.2-2.1-0.7-2.8-1.4
	C-272.2,406.1-272.7,405.1-272.8,403.9z M-245.2,384.9c2.7,2.7,4,6.2,4,10.3c0,4.2-1.3,7.6-4,10.3c-2.7,2.7-6.1,4-10.2,4
	c-4.1,0-7.5-1.3-10.1-4c-2.6-2.7-4-6.1-4-10.3c0-4.2,1.3-7.6,4-10.3c2.7-2.7,6-4.1,10.1-4.1C-251.3,380.8-247.9,382.2-245.2,384.9z
	 M-247.4,395.4c0-4.2-0.7-7.5-2-9.7c-1.4-2.2-3.3-3.3-5.9-3.3c-2.6,0-4.5,1.1-5.9,3.3c-1.3,2.2-2,5.5-2,9.7c0,4,0.7,7.1,2,9.3
	c1.4,2.2,3.3,3.3,5.9,3.3c2.5,0,4.5-1.1,5.9-3.3C-248.1,402.6-247.4,399.5-247.4,395.4z M-221.1,382.4c1.3,0.3,2.1,0.8,2.6,1.5
	c0.5,0.7,0.7,1.9,0.7,3.8v12.3l-15.2-18.3h-7.8v0.8c0.5,0.1,1,0.3,1.4,0.6c0.4,0.3,1.1,1,2.1,2.1v18.6c0,1.4-0.3,2.5-0.8,3.2
	c-0.5,0.7-1.4,1.1-2.6,1.3v0.8h9v-0.8c-1.5-0.3-2.6-0.7-3.1-1.3c-0.5-0.6-0.8-1.6-0.8-3.1v-16.7l18.7,22.2h0.9v-22.4
	c0-2.8,1.3-4.3,3.8-4.5v-0.8h-8.8V382.4z M-197,404v-20.9h2.6c1.6,0,2.8,0.4,3.7,1.1c0.9,0.7,1.6,1.8,2,3.4h0.8l-0.3-6.6h-0.8
	c-0.5,0.4-1.4,0.6-2.6,0.6h-16.8c-1.1,0-2-0.2-2.6-0.6h-0.8l-0.3,6.6h0.8c0.4-1.6,1.1-2.7,2-3.4c0.9-0.7,2.2-1.1,3.7-1.1h2.6V404
	c0,1.4-0.2,2.4-0.7,2.9c-0.4,0.5-1.3,0.9-2.6,1.2v0.8h12.2v-0.8c-1.2-0.2-2.1-0.6-2.5-1.2S-197,405.4-197,404z M-165.2,406.8
	c0.7,0.8,1.6,1.2,2.7,1.3v0.8h-12.7v-0.8c1.1-0.2,1.8-0.5,2.3-0.8c0.4-0.3,0.7-0.7,0.7-1.3c0-0.5-0.2-1.2-0.5-2.1l-1.5-4.2h-9.3
	l-1.3,3.6c-0.3,0.9-0.5,1.7-0.5,2.2c0,1.2,0.9,2,2.6,2.5v0.8h-8.4v-0.8c1-0.2,1.9-0.7,2.6-1.7c0.8-0.9,1.5-2.4,2.2-4.5l7.5-21h3.5
	l7.9,21.9C-166.6,404.7-165.9,406-165.2,406.8z M-175,397.7l-4-11.1l-3.8,11.1H-175z"/>
</svg>
