<?xml version="1.0" encoding="utf-8"?>
<!-- Generator: Adobe Illustrator 19.0.0, SVG Export Plug-In . SVG Version: 6.00 Build 0)  -->
<svg version="1.1" id="Layer_1" xmlns="http://www.w3.org/2000/svg" xmlns:xlink="http://www.w3.org/1999/xlink" x="0px" y="0px"
	 viewBox="0 0 101.6 38" style="enable-background:new 0 0 101.6 38;" xml:space="preserve">
<style type="text/css">
	.st0{fill:#5F2551;}
	.st1{fill:#7F2974;}
	.st2{fill:#59264D;}
	.st3{fill:#425829;}
	.st4{fill:#3D4E25;}
	.st5{fill:#384924;}
	.st6{fill:#4A6E20;}
	.st7{fill:#287B95;}
	.st8{fill:#276B88;}
	.st9{fill:#1FA5C4;}
</style>
<g id="XMLID_31_">
	<polygon id="XMLID_46_" class="st0" points="0,37.4 16.8,19.5 33.6,9.2 36.7,16.2 19.6,34.4 17.5,34 	"/>
	<polygon id="XMLID_44_" class="st1" points="0,37.4 16.8,19.5 33.6,9.2 20.4,20.7 6.3,36.2 	"/>
	<polygon id="XMLID_45_" class="st2" points="6.3,36.2 20.3,20.7 33.6,9.2 19.6,34.4 17.5,34 	"/>
	<polygon id="XMLID_43_" class="st3" points="22.1,34.9 49.1,7.5 52.6,8.2 56.9,0 68.7,13 67,13.3 51.1,34 48.8,33.5 42.3,29.1 
		33.7,35.8 27.2,35.8 	"/>
	<polygon id="XMLID_42_" class="st4" points="48.8,33.5 51.1,34 61.3,20.8 56.9,0 	"/>
	<polygon id="XMLID_41_" class="st5" points="25.2,35.4 27.2,35.8 33.7,35.8 42.3,29.1 48.8,33.5 56.9,0 53,9.3 49.6,8.8 	"/>
	<polygon id="XMLID_40_" class="st6" points="22.1,34.9 48.9,6.9 52.3,7.6 56.4,0.1 56.9,0 53,9.3 49.6,8.8 25.2,35.4 	"/>
	<polygon id="XMLID_37_" class="st7" points="53.9,34.6 71.5,12.5 86.5,26.7 91.8,27.4 101.6,37.8 87.3,31.9 81.3,38 68.4,31.8 
		57.6,35.4 	"/>
	<polygon id="XMLID_38_" class="st8" points="71.5,12.5 56.8,35.3 57.6,35.4 68.4,31.8 75.6,35.2 81.3,38 85.3,34 	"/>
	<polygon id="XMLID_36_" class="st9" points="53.2,34.5 70.7,12.7 71.5,12.5 56.8,35.2 	"/>
</g>
</svg>
